# xmcd
#
# Track frame offsets: 
#        150
#        30096
#        53612
#        72872
#        103223
#        125604
#        146247
#        157671
#        184747
#        205148
#        232871
#        254947
#        277583
#
# Disc length: 4204 seconds
#
# Revision: 1
# Processed by: cddbd v1.5.2PL0 Copyright (c) Steve Scherf et al.
# Submitted via: ExactAudioCopy v0.95b4
#
DISCID=ae106a0d
DTITLE=Sade - Lovers Live
DYEAR=2002
DGENRE=Pop
TTITLE0=Cherish The Day (Live)
TTITLE1=Somebody Already Broke My Heart (Live)
TTITLE2=Smooth Operator (Live)
TTITLE3=Jezebel (Live)
TTITLE4=Kiss Of Life (Live)
TTITLE5=Slave Song (Live)
TTITLE6=The Sweetest Gift (Live)
TTITLE7=The Sweetest Taboo (Live)
TTITLE8=Paradise (Live)
TTITLE9=No Ordinary Love (Live)
TTITLE10=By Your Side (Live)
TTITLE11=Flow (Live)
TTITLE12=Is It A Crime (Live)
EXTD=YEAR: 2002 ID3G:   8
EXTT0=
EXTT1=
EXTT2=
EXTT3=
EXTT4=
EXTT5=
EXTT6=
EXTT7=
EXTT8=
EXTT9=
EXTT10=
EXTT11=
EXTT12=
PLAYORDER=
